<?xml version="1.0" encoding="UTF-8" standalone="no"?><!DOCTYPE svg PUBLIC "-//W3C//DTD SVG 1.1//EN" "http://www.w3.org/Graphics/SVG/1.1/DTD/svg11.dtd"><svg width="100%" height="100%" viewBox="0 0 2321 250" version="1.1" xmlns="http://www.w3.org/2000/svg" xmlns:xlink="http://www.w3.org/1999/xlink" xml:space="preserve" style="fill-rule:evenodd;clip-rule:evenodd;stroke-linejoin:round;stroke-miterlimit:1.41421;"><g><path d="M145.2,196l0,-88.496c0,-6.3 -1.2,-11.404 -3.6,-15.304c-2.4,-3.596 -7.2,-5.4 -14.404,-5.4c-4.496,0 -8.7,0.904 -13.196,2.7c-4.2,1.804 -8.1,4.204 -12,6.6c0.3,1.504 0.3,2.7 0.3,4.204l0,95.696l-29.704,0l0,-88.496c0,-6.3 -1.196,-11.404 -3.596,-15.304c-2.4,-3.596 -7.2,-5.4 -14.4,-5.4c-3.9,0 -8.4,0.6 -12.6,2.404c-4.5,1.496 -8.7,3.3 -12.304,5.4l0,101.396l-29.696,0l0,-134.396l28.2,0l0,9.3c4.2,-3.3 9,-6 14.7,-8.404c5.7,-2.396 12.3,-3.596 20.1,-3.596c8.4,0 15.3,1.5 20.7,4.196c5.1,2.7 9.296,6.6 12.3,11.704c1.8,-1.804 4.196,-3.6 6.6,-5.4c2.7,-2.1 5.7,-3.604 9,-5.1c3.3,-1.5 6.896,-3.004 11.1,-3.9c3.9,-0.9 8.4,-1.5 12.896,-1.5c7.504,0 13.504,1.2 18.6,3.3c5.1,2.1 9.004,5.1 12.004,9c3,4.2 5.4,8.996 6.6,14.396c1.5,5.704 2.1,12.004 2.1,19.204l0,91.196l-29.7,0Z" style="fill:#007189;fill-rule:nonzero;"/><path d="M271.796,113.8c0,-4.196 -0.296,-8.096 -0.896,-11.7c-0.6,-3.596 -1.8,-6.896 -3.3,-9.596c-1.8,-2.7 -3.9,-4.8 -6.6,-6.304c-3.004,-1.796 -6.6,-2.396 -10.8,-2.396c-4.5,0 -8.4,0.6 -11.4,2.396c-3,1.504 -5.4,3.9 -7.2,6.904c-1.8,2.996 -3,6.6 -3.6,10.796c-0.904,4.204 -1.2,9.004 -1.2,14.104l44.996,0l0,-4.204Zm-44.7,26.4c0.6,10.804 3.604,18.604 8.404,23.7c4.8,5.1 11.7,7.8 21,7.8c3.6,0 7.5,-0.296 11.996,-0.6c4.204,-0.6 8.404,-1.2 12.004,-1.496c4.5,-0.9 9,-1.5 13.5,-2.404l0,26.704c-3.9,0.896 -8.1,1.8 -12.6,2.4c-3.6,0.9 -7.8,1.5 -12.6,1.796c-4.8,0.6 -9.3,0.6 -13.8,0.6c-8.4,0 -16.5,-1.2 -23.4,-3.3c-7.2,-2.396 -13.2,-6.296 -18.3,-11.396c-5.1,-5.104 -9,-12 -12,-20.104c-2.7,-8.396 -3.9,-18.296 -3.9,-30.3l0,-11.1c0,-9.9 0.896,-18.6 3,-26.4c2.1,-7.8 5.4,-14.4 9.9,-19.8c4.5,-5.396 9.9,-9.596 16.5,-12.896c6.6,-3 14.096,-4.5 23.1,-4.5c9,0 16.5,1.5 22.8,4.5c6,2.7 11.4,6.6 15.3,11.696c4.196,5.1 6.9,11.1 8.7,18.004c1.8,6.896 2.7,14.096 2.7,22.2l0,24.896l-72.304,0Z" style="fill:#007189;fill-rule:nonzero;"/><path d="M394.5,90.1c-3.604,-1.496 -7.5,-2.7 -11.4,-3.596c-3.9,-0.904 -7.8,-1.504 -11.4,-1.504c-7.5,0 -12.6,2.104 -15.6,6.304c-3.3,4.196 -4.8,9.9 -4.8,16.496l0,41.704c0,6.9 1.5,12.296 4.8,16.5c3,4.2 8.1,6.296 15.6,6.296c3.6,0 7.5,-0.296 11.4,-1.496c3.9,-1.2 7.796,-2.7 11.4,-4.5l0,-76.204Zm1.2,105.9l0,-6.6c-3.9,2.404 -8.7,4.8 -13.8,6.6c-5.1,1.804 -10.5,2.7 -16.2,2.7c-15,0 -26.104,-4.196 -33.3,-12.6c-6.9,-8.4 -10.5,-19.796 -10.5,-34.496l0,-45.604c0,-14.4 3.6,-26.096 10.5,-34.496c7.196,-8.404 18.3,-12.6 33.3,-12.6c5.4,0 10.8,0.896 15.296,2.1c4.804,1.496 9.304,3.3 13.504,5.1l0,-60.9l29.4,0l0,190.796l-28.2,0Z" style="fill:#007189;fill-rule:nonzero;"/><path d="M449.1,196l0,-134.396l29.7,0l0,134.396l-29.7,0Zm0,-161.1l0,-29.696l29.7,0l0,29.696l-29.7,0Z" style="fill:#007189;fill-rule:nonzero;"/><path d="M575.4,113.8c0,-4.196 -0.3,-8.096 -0.9,-11.7c-0.6,-3.596 -1.8,-6.896 -3.3,-9.596c-1.5,-2.7 -3.9,-4.8 -6.6,-6.304c-2.7,-1.796 -6.3,-2.396 -10.5,-2.396c-4.8,0 -8.7,0.6 -11.4,2.396c-3,1.504 -5.404,3.9 -7.2,6.904c-1.8,2.996 -3,6.6 -3.9,10.796c-0.6,4.204 -0.9,9.004 -0.9,14.104l44.7,0l0,-4.204Zm-44.4,26.4c0.6,10.804 3.296,18.604 8.1,23.7c5.1,5.1 12,7.8 21,7.8c3.6,0 7.8,-0.296 12,-0.6c4.5,-0.6 8.4,-1.2 12.3,-1.496c4.5,-0.9 9,-1.5 13.5,-2.404l0,26.704c-3.9,0.896 -8.1,1.8 -12.6,2.4c-3.9,0.9 -8.1,1.5 -12.6,1.796c-4.8,0.6 -9.3,0.6 -13.8,0.6c-8.7,0 -16.504,-1.2 -23.7,-3.3c-6.9,-2.396 -12.9,-6.296 -18.3,-11.396c-5.1,-5.104 -9,-12 -11.7,-20.104c-2.7,-8.396 -4.2,-18.296 -4.2,-30.3l0,-11.1c0,-9.9 1.2,-18.6 3.3,-26.4c2.1,-7.8 5.4,-14.4 9.9,-19.8c4.2,-5.396 9.6,-9.596 16.2,-12.896c6.6,-3 14.4,-4.5 23.4,-4.5c8.7,0 16.2,1.5 22.5,4.5c6.3,2.7 11.4,6.6 15.6,11.696c3.9,5.1 6.9,11.1 8.7,18.004c1.8,6.896 2.7,14.096 2.7,22.2l0,24.896l-72.3,0Z" style="fill:#007189;fill-rule:nonzero;"/><path d="M698.1,196l0,-88.496c0,-6.3 -1.2,-11.404 -3.6,-15.304c-2.4,-3.596 -7.2,-5.4 -14.4,-5.4c-3.9,0 -8.4,0.6 -12.6,2.404c-4.5,1.496 -8.7,3.3 -12.3,5.4l0,101.396l-29.7,0l0,-134.396l28.2,0l0,9.3c4.2,-3.3 9,-6 14.7,-8.404c5.7,-2.396 12.3,-3.596 20.1,-3.596c7.5,0 13.5,1.2 18.6,3.3c5.1,2.1 9,5.1 12,9c3,4.2 5.4,8.996 6.6,14.396c1.5,5.704 2.1,12.004 2.1,19.204l0,91.196l-29.7,0Z" style="fill:#007189;fill-rule:nonzero;"/><path d="M1215,107.8c0,-6.596 -1.5,-12.3 -4.496,-16.496c-2.704,-4.2 -8.104,-6.304 -15.604,-6.304c-3.6,0 -7.5,0.6 -11.4,1.8c-4.2,1.204 -7.8,2.7 -11.396,4.504l0,79.196l20.692,0c8.108,0 13.804,-2.1 17.104,-6c3.6,-3.9 5.1,-9.596 5.1,-16.196l0,-40.504Zm29.7,41.104c0,14.7 -4.196,26.4 -11.996,34.8c-8.104,8.1 -20.404,12.296 -37.204,12.296l-52.8,0l0,-190.796l29.404,0l0,62.1c4.2,-2.4 8.396,-4.5 13.496,-6.004c4.8,-1.5 9.9,-2.396 15.6,-2.396c15,0 26.1,4.196 33,12.6c6.9,8.4 10.5,20.096 10.5,34.496l0,42.904Z" style="fill:#007189;fill-rule:nonzero;"/><path d="M1268.4,196l0,-134.396l29.4,0l0,134.396l-29.4,0Zm0,-161.1l0,-29.696l29.4,0l0,29.696l-29.4,0Z" style="fill:#007189;fill-rule:nonzero;"/><rect x="1323" y="5.204" width="29.692" height="190.796" style="fill:#007189;fill-rule:nonzero;"/><path d="M1449,90.1c-3.6,-1.496 -7.5,-2.7 -11.4,-3.596c-3.9,-0.904 -7.8,-1.504 -11.4,-1.504c-7.5,0 -12.596,2.104 -15.6,6.304c-3.3,4.196 -4.8,9.9 -4.8,16.496l0,41.704c0,6.9 1.5,12.296 4.8,16.5c3.004,4.2 8.1,6.296 15.6,6.296c3.6,0 7.5,-0.296 11.4,-1.496c3.9,-1.2 7.8,-2.7 11.4,-4.5l0,-76.204Zm1.2,105.9l0,-6.6c-4.2,2.404 -8.7,4.8 -13.8,6.6c-5.096,1.804 -10.496,2.7 -16.196,2.7c-15.004,0 -26.104,-4.196 -33.308,-12.6c-6.896,-8.4 -10.496,-19.796 -10.496,-34.496l0,-45.604c0,-14.4 3.6,-26.096 10.496,-34.496c7.204,-8.404 18.304,-12.6 33.308,-12.6c5.396,0 10.796,0.896 15.3,2.1c4.796,1.496 9.296,3.3 13.496,5.1l0,-60.9l29.4,0l0,190.796l-28.2,0Z" style="fill:#007189;fill-rule:nonzero;"/><path d="M1577.4,196l0,-8.696c-3.896,3 -9,5.7 -14.7,8.096c-5.696,2.1 -12.296,3.3 -19.8,3.3c-7.5,0 -13.496,-0.896 -18.6,-2.996c-5.1,-2.4 -9,-5.4 -12,-9.3c-3.3,-3.9 -5.4,-8.704 -6.6,-14.4c-1.496,-5.7 -2.1,-12.004 -2.1,-18.9l0,-91.5l29.4,0l0,88.8c0,6.296 1.5,11.396 3.896,15c2.408,3.9 7.204,5.696 14.404,5.696c3.9,0 8.104,-0.896 12.6,-2.396c4.5,-1.504 8.404,-3.3 12.3,-5.404l0,-101.696l29.404,0l0,134.396l-28.204,0Z" style="fill:#007189;fill-rule:nonzero;"/><path d="M1703.4,196l0,-88.496c0,-6.3 -1.2,-11.404 -3.6,-15.304c-2.4,-3.596 -7.196,-5.4 -14.4,-5.4c-4.2,0 -8.404,0.6 -12.9,2.404c-4.2,1.496 -8.4,3.3 -11.996,5.4l0,101.396l-29.704,0l0,-134.396l28.2,0l0,9.3c3.904,-3.3 8.7,-6 14.7,-8.404c5.7,-2.396 12.304,-3.596 20.104,-3.596c7.196,0 13.496,1.2 18.596,3.3c4.8,2.1 9,5.1 12,9c3,4.2 5.1,8.996 6.6,14.396c1.2,5.704 2.1,12.004 2.1,19.204l0,91.196l-29.7,0Z" style="fill:#007189;fill-rule:nonzero;"/><path d="M1827.9,87.104c-3.6,-0.304 -7.5,-0.904 -11.1,-1.504c-3.6,-0.296 -6.9,-0.6 -9.6,-0.6c-8.1,0 -13.8,2.104 -17.1,6.304c-3.3,4.196 -5.1,9.9 -5.1,16.496l0,36.3c0,6.904 1.504,12.304 4.496,16.5c3.004,4.5 8.404,6.6 15.904,6.6c3.6,0 7.2,-0.6 11.4,-1.796c3.9,-1.2 7.5,-2.7 11.1,-4.5l0,-73.8Zm29.7,110.396c0,9.304 -0.9,17.7 -3,24.3c-1.8,6.6 -4.8,12.004 -8.696,16.204c-3.904,4.196 -9.004,7.2 -15.004,9c-6.3,1.796 -13.8,2.996 -22.2,2.996c-6.004,0 -11.7,-0.296 -17.4,-0.896c-5.7,-0.6 -10.8,-1.2 -15.6,-2.1c-5.4,-0.904 -10.2,-2.104 -15,-3.3l0,-27c5.4,1.2 10.8,2.1 15.9,2.7c4.5,0.896 9.3,1.5 14.404,2.1c4.796,0.296 9.596,0.6 13.496,0.6c9.3,0 15.3,-2.1 18.6,-6.304c3.3,-4.196 4.8,-10.196 4.8,-18.3l0,-12.6c-3.896,2.404 -8.396,4.5 -13.2,6c-4.8,1.8 -9.9,2.404 -15.6,2.404c-15,0 -26.096,-4.2 -33,-12.6c-7.2,-8.404 -10.804,-19.8 -10.804,-34.2l0,-39c0,-14.704 4.204,-26.7 12.308,-35.4c7.8,-8.7 20.396,-13.2 36.896,-13.2c5.7,0 11.7,0.296 18,1.2c6.3,0.596 12,1.5 17.4,2.396c5.7,0.904 11.7,1.804 17.7,3.3l0,131.7Z" style="fill:#007189;fill-rule:nonzero;"/><rect x="1879.8" y="162.4" width="33.9" height="33.6" style="fill:#007189;fill-rule:nonzero;"/><path d="M2008.5,195.704c-3,0.296 -6.3,0.9 -9.296,1.5c-3.004,0.296 -6.004,0.6 -9.604,1.2c-3.3,0.296 -6.6,0.296 -9.6,0.296c-16.2,0 -28.8,-4.196 -37.5,-12.896c-9,-8.4 -13.2,-21.304 -13.2,-38.1l0,-37.5c0,-17.1 4.2,-29.7 12.9,-38.404c8.7,-8.396 21.3,-12.896 37.8,-12.896c3,0 6.3,0.296 9.6,0.6c3.6,0.296 6.6,0.6 9.604,1.196c2.996,0.304 6.296,0.904 9.296,1.504l0,25.8c-3,-0.3 -6.3,-0.604 -9.296,-1.204c-2.704,-0.296 -5.704,-0.6 -8.704,-0.6c-3.296,-0.296 -6,-0.296 -8.7,-0.296c-8.7,0 -14.7,2.1 -18,6.896c-3.296,4.5 -5.1,10.5 -5.1,17.7l0,36.3c0,7.504 1.804,13.8 5.4,18.3c3.3,4.504 9.6,6.904 18,6.904c2.704,0 5.4,-0.304 8.7,-0.304c3.004,-0.296 5.996,-0.6 8.7,-0.896c3,-0.304 6.3,-0.6 9,-1.2l0,26.1Z" style="fill:#007189;fill-rule:nonzero;"/><path d="M2091.6,109.604c0,-6.904 -1.5,-12.6 -4.5,-17.7c-3.3,-4.8 -9,-7.2 -16.8,-7.2c-8.096,0 -13.8,2.4 -17.1,7.2c-3.3,5.1 -4.8,10.796 -4.8,17.7l0,38.396c0,6.904 1.5,12.6 4.8,17.404c3.3,4.8 9.004,7.2 17.1,7.2c7.8,0 13.5,-2.4 16.8,-7.2c3,-4.804 4.5,-10.5 4.5,-17.404l0,-38.396Zm29.7,38.1c0,16.796 -4.5,29.7 -13.2,38.1c-8.7,8.7 -21.3,12.896 -37.8,12.896c-16.5,0 -29.1,-4.196 -38.1,-12.896c-9,-8.4 -13.5,-21.304 -13.5,-38.1l0,-37.5c0,-17.1 4.5,-29.7 13.5,-38.404c8.7,-8.396 21.6,-12.896 38.1,-12.896c16.204,0 28.8,4.5 37.8,12.896c8.7,8.704 13.2,21.304 13.2,38.404l0,37.5Z" style="fill:#007189;fill-rule:nonzero;"/><path d="M2289,196l0,-88.496c0,-6.3 -1.5,-11.404 -3.896,-15.304c-2.4,-3.596 -7.204,-5.4 -14.404,-5.4c-4.2,0 -8.7,0.904 -12.9,2.7c-4.5,1.804 -8.4,4.204 -12.3,6.6c0.3,1.504 0.3,2.7 0.3,4.204l0,95.696l-29.7,0l0,-88.496c0,-6.3 -1.2,-11.404 -3.6,-15.304c-2.396,-3.596 -7.204,-5.4 -14.4,-5.4c-3.9,0 -8.1,0.6 -12.596,2.404c-4.504,1.496 -8.404,3.3 -12.304,5.4l0,101.396l-29.7,0l0,-134.396l28.5,0l0,9.3c3.9,-3.3 8.696,-6 14.4,-8.404c5.7,-2.396 12.604,-3.596 20.1,-3.596c8.4,0 15.296,1.5 20.7,4.196c5.1,2.7 9.304,6.6 12.296,11.704c1.804,-1.804 4.204,-3.6 6.6,-5.4c2.704,-2.1 5.708,-3.604 9.008,-5.1c3.3,-1.5 6.896,-3.004 11.096,-3.9c3.9,-0.9 8.4,-1.5 12.9,-1.5c7.5,0 13.504,1.2 18.6,3.3c5.1,2.1 9,5.1 12,9c3.3,4.2 5.4,8.996 6.6,14.396c1.496,5.704 2.1,12.004 2.1,19.204l0,91.196l-29.4,0Z" style="fill:#007189;fill-rule:nonzero;"/><path d="M935.1,0.1c36.057,0.006 72.028,3.609 107.7,9.604c13.5,2.4 28.2,16.2 31.2,29.4c5.4,23.7 7.796,47.4 7.796,71.1c0,23.7 -2.396,47.696 -7.796,71.1c-3,13.496 -17.7,27.296 -31.2,29.396c-35.7,6.304 -71.7,9.6 -107.7,9.6c-36,0 -72,-3.296 -108,-9.6c-3.227,-0.586 -6.543,-1.835 -9.729,-3.581c-2.536,-1.379 -5.006,-3.068 -7.352,-5.011l-2.194,-1.943c-4.985,-4.69 -8.995,-10.441 -10.929,-16.333l-0.696,-2.528c-5.4,-23.404 -7.8,-47.4 -7.8,-71.1c0,-23.7 2.4,-47.4 7.8,-71.1c3,-13.2 17.7,-27 30.9,-29.4c35.971,-5.995 71.943,-9.598 108,-9.604Z" style="fill:#ddde3b;"/><path d="M949.5,95.204l0,-63.004l-28.8,0l0,63.004l-63,0l0,28.496l63,0l0,63.004l28.8,0l0,-63.004l63,0l0,-28.496l-63,0Z" style="fill:#fff;"/></g></svg>